<svg
  width="756"
  height="605"
  xmlns="http://www.w3.org/2000/svg"
  xmlns:xlink="http://www.w3.org/1999/xlink"
  overflow="hidden"
>
  <defs>
    <clipPath id="clip0">
      <rect x="0" y="0" width="756" height="605" />
    </clipPath>
  </defs>
  <g clip-path="url(#clip0)">
    <rect
      x="0"
      y="0"
      width="756"
      height="605"
      fill="#FFFFFF"
      fill-opacity="0"
      transform="scale(1 1.00033)"
    />
    <path
      d="M574 284 458.184 324.756 458.184 243.244ZM489.919 83.175 437.163 193.044 378.917 135.406ZM287 0 328.187 114.606 245.813 114.606ZM84.0536 83.175 195.083 135.406 136.837 193.044ZM0 284 115.816 243.244 115.816 324.756ZM84.0536 484.798 136.837 374.956 195.083 432.594ZM287 568 245.813 453.394 328.187 453.394ZM489.919 484.798 378.917 432.594 437.163 374.956ZM143.5 284C143.5 205.576 207.747 142 287 142 366.253 142 430.5 205.576 430.5 284 430.5 362.424 366.253 426 287 426 207.747 426 143.5 362.424 143.5 284Z"
      fill="#FFD966"
      fill-rule="evenodd"
      transform="matrix(1 0 -0 1.00033 7.99998 6.00194)"
    />
    <path
      d="M45.0486 118.087C39.2421 76.759 69.1397 38.699 111.827 33.0774 129.124 30.7995 146.71 34.2048 161.772 42.7483 177.732 13.6215 215.027 2.55189 245.072 18.0235 250.326 20.729 255.148 24.1579 259.388 28.2035 271.818 4.05961 302.094-5.74945 327.012 6.29434 333.908 9.62775 339.925 14.4487 344.598 20.3868 364.633-2.44561 400.035-5.26597 423.671 14.0873 433.605 22.2215 440.301 33.4406 442.609 45.8213 475.436 54.4933 494.801 87.3418 485.862 119.19 485.111 121.868 484.168 124.491 483.041 127.042 509.368 160.227 502.923 207.792 468.646 233.281 457.976 241.215 445.373 246.353 432.055 248.196 431.759 283.899 401.602 312.61 364.699 312.323 352.369 312.228 340.307 308.834 329.848 302.517 317.366 342.544 273.828 365.168 232.602 353.048 215.325 347.969 200.397 337.228 190.365 322.657 148.155 347.309 93.3681 334.048 67.995 293.038 67.6752 292.521 67.361 292.001 67.0524 291.478 39.4279 294.609 14.4053 275.522 11.1631 248.847 9.43487 234.628 14.2822 220.397 24.4134 209.945 0.494576 196.31-7.5402 166.383 6.46718 143.101 14.5482 129.669 28.7214 120.789 44.6283 119.192Z"
      stroke="#767171"
      stroke-width="1.33363"
      stroke-miterlimit="8"
      fill="#D0CECE"
      fill-rule="evenodd"
      transform="matrix(1 0 -0 1.00033 249.5 244.581)"
    />
    <path
      d="M54.2085 215.112C43.9972 215.886 33.7869 213.601 24.9487 208.563M80.0248 286.786C75.9185 288.369 71.6143 289.423 67.223 289.92M190.336 321.226C187.248 316.74 184.662 311.946 182.623 306.927M332.979 285.57C332.524 290.89 331.492 296.149 329.898 301.259M394.222 188.627C417.374 199.538 431.985 222.35 431.778 247.264M482.806 126.173C479.056 134.657 473.332 142.183 466.082 148.161M442.678 44.5887C443.317 48.0146 443.612 51.4921 443.561 54.9729M335.878 32.4759C338.057 27.6852 340.942 23.2246 344.445 19.2329M255.749 38.787C256.638 34.828 258.032 30.9915 259.898 27.3659M161.713 42.6657C167.163 45.7571 172.205 49.4778 176.728 53.7462M47.6707 129.748C46.4811 125.935 45.6049 122.036 45.0504 118.09"
      stroke="#767171"
      stroke-width="1.33363"
      stroke-miterlimit="8"
      fill="none"
      fill-rule="evenodd"
      transform="matrix(1 0 -0 1.00033 249.5 244.581)"
    />
  </g>
</svg>
